<svg width="64" height="64" viewBox="0 0 64 64" fill="none" xmlns="http://www.w3.org/2000/svg">
<path d="M11 44V27H22C21.7373 27.1641 21.4629 27.3041 21.1885 27.4333C19.1246 28.4166 17.705 30.3718 17.2518 32.5727L15.7721 39.8788L15.7838 40.0897C13.6843 40.6048 11.9187 42.0329 11.0117 44H11Z" fill="#34CB79"/>
<path d="M43.9091 2.5625L48.5152 2L56 16.0625V18.3125L54.2727 20H38.1515L37 17.75L37.5758 13.8125L43.9091 2.5625Z" fill="#34CB79"/>
<mask id="path-4-inside-1" fill="white">
<path fill-rule="evenodd" clip-rule="evenodd" d="M52.6663 49.4727C57.098 49.4727 60.7033 53.0125 60.7033 57.3636V60.7455V63H3.29605L3.2959 60.7455V57.3636C3.2959 54.1981 5.20873 51.4691 7.9552 50.2119L9.90784 43.8226C9.96259 43.6461 10.034 43.4798 10.1056 43.3131C10.1323 43.2511 10.1589 43.189 10.1848 43.1263V25.205C10.1848 23.0561 11.4008 21.1241 13.3585 20.1636L14.7774 19.4668V16.7818H12.4811V13.4C12.4811 11.5357 14.0267 10.0182 15.9255 10.0182H22.8144C24.7132 10.0182 26.2589 11.5357 26.2589 13.4V16.7818H23.9626V19.4668L25.3826 20.1636C26.4495 20.6865 27.2943 21.5254 27.8527 22.5442C28.2614 22.471 28.6813 22.4182 29.127 22.4182C30.2151 22.4182 31.1845 22.6626 32.0708 23.1624C32.7553 22.8453 33.8631 22.4182 34.8722 22.4182C37.3843 22.4182 39.2943 23.7226 40.9806 24.8742L40.983 24.8758C41.6002 25.2975 42.1961 25.6806 42.8005 26.0185L45.7774 24.0695V21.2909H41.4556C38.7736 21.2909 36.5922 19.1492 36.5922 16.516C36.5922 15.7784 36.7699 15.0403 37.1052 14.3809L42.5751 3.63984C43.4043 2.01113 45.071 1 46.9255 1C48.7801 1 50.4468 2.01113 51.2759 3.63874L56.7459 14.3798C57.0811 15.0403 57.2589 15.7784 57.2589 16.516C57.2589 19.1492 55.0775 21.2909 52.3955 21.2909H48.0737V24.0695L54.4507 28.245L53.177 30.1208L48.0737 26.7798V29.7058L54.4507 33.8814L53.177 35.7572L48.0737 32.4161V35.3422L54.4507 39.5177L53.177 41.3936L48.0737 38.0525V40.9785L54.4507 45.153L53.177 47.0288L48.0737 43.6877V47.3084C49.7993 47.5517 51.3494 48.3295 52.5401 49.4727H52.6663ZM39.1593 15.3887C38.9827 15.7371 38.8885 16.1268 38.8885 16.516C38.8885 17.9058 40.04 19.0364 41.4556 19.0364H52.3955C53.8111 19.0364 54.9626 17.9058 54.9626 16.516C54.9626 16.1268 54.8695 15.7371 54.6918 15.3887L49.2218 4.64767C48.9679 4.14954 48.5569 3.77965 48.0737 3.54077H45.7774C45.2941 3.77965 44.8832 4.14954 44.6292 4.64767L39.1593 15.3887ZM52.6663 56.1224V55.1091C52.6663 52.3867 50.6901 50.1096 48.0737 49.5867V50.6C48.0737 53.3213 50.0499 55.5995 52.6663 56.1224ZM41.1848 56.1224C43.8012 55.5995 45.7774 53.3224 45.7774 50.6V49.5867C43.161 50.1096 41.1848 52.3867 41.1848 55.1091V56.1224ZM15.9255 12.2727C15.2931 12.2727 14.7774 12.7791 14.7774 13.4V14.5273H23.9626V13.4C23.9626 12.7791 23.4468 12.2727 22.8144 12.2727H15.9255ZM17.0737 20.8605L14.3849 22.1804C13.2099 22.7561 12.4811 23.9153 12.4811 25.205V40.0252C13.1942 39.4434 14.0004 38.9799 14.8839 38.6701L16.2277 32.0754C16.7429 29.5495 18.3894 27.4028 20.633 26.3356C21.4403 25.9508 22.2061 25.4279 23.0162 24.8747C23.8224 24.3243 24.6824 23.7414 25.6321 23.2807C25.3058 22.8205 24.8764 22.4363 24.355 22.1804L21.6663 20.8605V16.7818H17.0737V20.8605ZM11.3329 51.7273C8.16768 51.7273 5.59219 54.2559 5.59219 57.3636V60.7455H58.407V57.3636C58.407 54.8185 56.6685 52.6878 54.3044 51.9898C54.726 52.947 54.9626 54.0011 54.9626 55.1091V58.4909H53.8144C50.8891 58.4909 48.3321 56.9431 46.9255 54.6434C45.5189 56.9431 42.962 58.4909 40.0366 58.4909H38.8885V55.1091C38.8885 51.1422 41.8884 47.8583 45.7774 47.3084V43.6877L40.6729 47.0277L39.3992 45.1519L45.7774 40.9774V38.0514L40.6729 41.3914L39.3992 39.5155L45.7774 35.3411V32.415L40.6729 35.755L39.3992 33.8792L45.7774 29.7047V26.7787L40.6729 30.1197L39.3992 28.2439L40.6886 27.4006C40.3444 27.1777 40.0024 26.952 39.6717 26.7253C38.1261 25.669 36.6656 24.6727 34.8722 24.6727C34.1927 24.6727 33.1018 25.145 32.5737 25.4417L31.9194 25.811L31.3128 25.3685C30.6575 24.8868 29.9836 24.6727 29.127 24.6727C27.3336 24.6727 25.8732 25.669 24.3275 26.7242C23.4804 27.3038 22.6031 27.9026 21.6343 28.3633C20.6333 28.8398 19.8001 29.6249 19.2222 30.5955L19.2218 30.5954L19.221 30.5976C19.2151 30.6075 19.2093 30.6173 19.2035 30.6272C19.2055 30.6279 19.2076 30.6286 19.2096 30.6292L18.4454 32.752C18.4406 32.7505 18.4358 32.749 18.4309 32.7475L17.3159 38.2226C17.3607 38.2211 17.4044 38.2163 17.448 38.2115C17.5003 38.2057 17.5525 38.2 17.6063 38.2H29.7033V40.4545H17.6063C15.0515 40.4545 12.8416 42.0689 12.1077 44.471L10.5683 49.5113C10.8211 49.4876 11.0745 49.4727 11.3329 49.4727H22.8144V51.7273H11.3329Z"/>
</mask>
<path fill-rule="evenodd" clip-rule="evenodd" d="M52.6663 49.4727C57.098 49.4727 60.7033 53.0125 60.7033 57.3636V60.7455V63H3.29605L3.2959 60.7455V57.3636C3.2959 54.1981 5.20873 51.4691 7.9552 50.2119L9.90784 43.8226C9.96259 43.6461 10.034 43.4798 10.1056 43.3131C10.1323 43.2511 10.1589 43.189 10.1848 43.1263V25.205C10.1848 23.0561 11.4008 21.1241 13.3585 20.1636L14.7774 19.4668V16.7818H12.4811V13.4C12.4811 11.5357 14.0267 10.0182 15.9255 10.0182H22.8144C24.7132 10.0182 26.2589 11.5357 26.2589 13.4V16.7818H23.9626V19.4668L25.3826 20.1636C26.4495 20.6865 27.2943 21.5254 27.8527 22.5442C28.2614 22.471 28.6813 22.4182 29.127 22.4182C30.2151 22.4182 31.1845 22.6626 32.0708 23.1624C32.7553 22.8453 33.8631 22.4182 34.8722 22.4182C37.3843 22.4182 39.2943 23.7226 40.9806 24.8742L40.983 24.8758C41.6002 25.2975 42.1961 25.6806 42.8005 26.0185L45.7774 24.0695V21.2909H41.4556C38.7736 21.2909 36.5922 19.1492 36.5922 16.516C36.5922 15.7784 36.7699 15.0403 37.1052 14.3809L42.5751 3.63984C43.4043 2.01113 45.071 1 46.9255 1C48.7801 1 50.4468 2.01113 51.2759 3.63874L56.7459 14.3798C57.0811 15.0403 57.2589 15.7784 57.2589 16.516C57.2589 19.1492 55.0775 21.2909 52.3955 21.2909H48.0737V24.0695L54.4507 28.245L53.177 30.1208L48.0737 26.7798V29.7058L54.4507 33.8814L53.177 35.7572L48.0737 32.4161V35.3422L54.4507 39.5177L53.177 41.3936L48.0737 38.0525V40.9785L54.4507 45.153L53.177 47.0288L48.0737 43.6877V47.3084C49.7993 47.5517 51.3494 48.3295 52.5401 49.4727H52.6663ZM39.1593 15.3887C38.9827 15.7371 38.8885 16.1268 38.8885 16.516C38.8885 17.9058 40.04 19.0364 41.4556 19.0364H52.3955C53.8111 19.0364 54.9626 17.9058 54.9626 16.516C54.9626 16.1268 54.8695 15.7371 54.6918 15.3887L49.2218 4.64767C48.9679 4.14954 48.5569 3.77965 48.0737 3.54077H45.7774C45.2941 3.77965 44.8832 4.14954 44.6292 4.64767L39.1593 15.3887ZM52.6663 56.1224V55.1091C52.6663 52.3867 50.6901 50.1096 48.0737 49.5867V50.6C48.0737 53.3213 50.0499 55.5995 52.6663 56.1224ZM41.1848 56.1224C43.8012 55.5995 45.7774 53.3224 45.7774 50.6V49.5867C43.161 50.1096 41.1848 52.3867 41.1848 55.1091V56.1224ZM15.9255 12.2727C15.2931 12.2727 14.7774 12.7791 14.7774 13.4V14.5273H23.9626V13.4C23.9626 12.7791 23.4468 12.2727 22.8144 12.2727H15.9255ZM17.0737 20.8605L14.3849 22.1804C13.2099 22.7561 12.4811 23.9153 12.4811 25.205V40.0252C13.1942 39.4434 14.0004 38.9799 14.8839 38.6701L16.2277 32.0754C16.7429 29.5495 18.3894 27.4028 20.633 26.3356C21.4403 25.9508 22.2061 25.4279 23.0162 24.8747C23.8224 24.3243 24.6824 23.7414 25.6321 23.2807C25.3058 22.8205 24.8764 22.4363 24.355 22.1804L21.6663 20.8605V16.7818H17.0737V20.8605ZM11.3329 51.7273C8.16768 51.7273 5.59219 54.2559 5.59219 57.3636V60.7455H58.407V57.3636C58.407 54.8185 56.6685 52.6878 54.3044 51.9898C54.726 52.947 54.9626 54.0011 54.9626 55.1091V58.4909H53.8144C50.8891 58.4909 48.3321 56.9431 46.9255 54.6434C45.5189 56.9431 42.962 58.4909 40.0366 58.4909H38.8885V55.1091C38.8885 51.1422 41.8884 47.8583 45.7774 47.3084V43.6877L40.6729 47.0277L39.3992 45.1519L45.7774 40.9774V38.0514L40.6729 41.3914L39.3992 39.5155L45.7774 35.3411V32.415L40.6729 35.755L39.3992 33.8792L45.7774 29.7047V26.7787L40.6729 30.1197L39.3992 28.2439L40.6886 27.4006C40.3444 27.1777 40.0024 26.952 39.6717 26.7253C38.1261 25.669 36.6656 24.6727 34.8722 24.6727C34.1927 24.6727 33.1018 25.145 32.5737 25.4417L31.9194 25.811L31.3128 25.3685C30.6575 24.8868 29.9836 24.6727 29.127 24.6727C27.3336 24.6727 25.8732 25.669 24.3275 26.7242C23.4804 27.3038 22.6031 27.9026 21.6343 28.3633C20.6333 28.8398 19.8001 29.6249 19.2222 30.5955L19.2218 30.5954L19.221 30.5976C19.2151 30.6075 19.2093 30.6173 19.2035 30.6272C19.2055 30.6279 19.2076 30.6286 19.2096 30.6292L18.4454 32.752C18.4406 32.7505 18.4358 32.749 18.4309 32.7475L17.3159 38.2226C17.3607 38.2211 17.4044 38.2163 17.448 38.2115C17.5003 38.2057 17.5525 38.2 17.6063 38.2H29.7033V40.4545H17.6063C15.0515 40.4545 12.8416 42.0689 12.1077 44.471L10.5683 49.5113C10.8211 49.4876 11.0745 49.4727 11.3329 49.4727H22.8144V51.7273H11.3329Z" fill="#322153"/>
<path d="M60.7033 63V64H61.7033V63H60.7033ZM3.29605 63L2.29605 63.0001L2.29612 64H3.29605V63ZM3.2959 60.7455H2.2959V60.7455L3.2959 60.7455ZM7.9552 50.2119L8.37141 51.1212L8.78016 50.9341L8.91154 50.5042L7.9552 50.2119ZM9.90784 43.8226L8.95273 43.5263L8.9515 43.5303L9.90784 43.8226ZM10.1056 43.3131L11.0244 43.7078L11.0244 43.7078L10.1056 43.3131ZM10.1848 43.1263L11.1093 43.5075L11.1848 43.3244V43.1263H10.1848ZM13.3585 20.1636L13.7989 21.0614L13.7993 21.0612L13.3585 20.1636ZM14.7774 19.4668L15.2182 20.3644L15.7774 20.0898V19.4668H14.7774ZM14.7774 16.7818H15.7774V15.7818H14.7774V16.7818ZM12.4811 16.7818H11.4811V17.7818H12.4811V16.7818ZM26.2589 16.7818V17.7818H27.2589V16.7818H26.2589ZM23.9626 16.7818V15.7818H22.9626V16.7818H23.9626ZM23.9626 19.4668H22.9626V20.09L23.522 20.3645L23.9626 19.4668ZM25.3826 20.1636L24.9421 21.0614L24.9425 21.0616L25.3826 20.1636ZM27.8527 22.5442L26.9758 23.0248L27.3213 23.6553L28.029 23.5286L27.8527 22.5442ZM32.0708 23.1624L31.5796 24.0334L32.026 24.2851L32.4911 24.0698L32.0708 23.1624ZM40.9806 24.8742L41.5449 24.0487L41.5446 24.0484L40.9806 24.8742ZM40.983 24.8758L40.4186 25.7014L40.4189 25.7016L40.983 24.8758ZM42.8005 26.0185L42.3124 26.8913L42.8413 27.1871L43.3483 26.8551L42.8005 26.0185ZM45.7774 24.0695L46.3251 24.9061L46.7774 24.61V24.0695H45.7774ZM45.7774 21.2909H46.7774V20.2909H45.7774V21.2909ZM37.1052 14.3809L36.2141 13.9271L36.2138 13.9277L37.1052 14.3809ZM42.5751 3.63984L43.4662 4.09365L43.4663 4.09352L42.5751 3.63984ZM51.2759 3.63874L52.167 3.18494L52.167 3.18482L51.2759 3.63874ZM56.7459 14.3798L57.6376 13.9272L57.637 13.926L56.7459 14.3798ZM48.0737 21.2909V20.2909H47.0737V21.2909H48.0737ZM48.0737 24.0695H47.0737V24.61L47.5259 24.9061L48.0737 24.0695ZM54.4507 28.245L55.278 28.8067L55.8493 27.9654L54.9985 27.4084L54.4507 28.245ZM53.177 30.1208L52.6292 30.9575L53.4519 31.4961L54.0043 30.6826L53.177 30.1208ZM48.0737 26.7798L48.6214 25.9431L47.0737 24.9298V26.7798H48.0737ZM48.0737 29.7058H47.0737V30.2463L47.5259 30.5424L48.0737 29.7058ZM54.4507 33.8814L55.278 34.4431L55.8493 33.6018L54.9985 33.0447L54.4507 33.8814ZM53.177 35.7572L52.6292 36.5939L53.4519 37.1325L54.0043 36.319L53.177 35.7572ZM48.0737 32.4161L48.6214 31.5795L47.0737 30.5662V32.4161H48.0737ZM48.0737 35.3422H47.0737V35.8827L47.5259 36.1788L48.0737 35.3422ZM54.4507 39.5177L55.278 40.0795L55.8493 39.2382L54.9985 38.6811L54.4507 39.5177ZM53.177 41.3936L52.6292 42.2302L53.4519 42.7688L54.0043 41.9553L53.177 41.3936ZM48.0737 38.0525L48.6214 37.2158L47.0737 36.2025V38.0525H48.0737ZM48.0737 40.9785H47.0737V41.5191L47.526 41.8152L48.0737 40.9785ZM54.4507 45.153L55.278 45.7147L55.8494 44.8733L54.9984 44.3163L54.4507 45.153ZM53.177 47.0288L52.6292 47.8655L53.4519 48.4041L54.0043 47.5906L53.177 47.0288ZM48.0737 43.6877L48.6214 42.8511L47.0737 41.8378V43.6877H48.0737ZM48.0737 47.3084H47.0737V48.1773L47.9341 48.2987L48.0737 47.3084ZM52.5401 49.4727L51.8476 50.1941L52.1378 50.4727H52.5401V49.4727ZM39.1593 15.3887L38.2682 14.9349L38.2673 14.9366L39.1593 15.3887ZM54.6918 15.3887L53.8007 15.8425L53.801 15.8431L54.6918 15.3887ZM49.2218 4.64767L50.1129 4.19387L50.1127 4.19348L49.2218 4.64767ZM48.0737 3.54077L48.5168 2.64431L48.3073 2.54077H48.0737V3.54077ZM45.7774 3.54077V2.54077H45.5437L45.3342 2.64431L45.7774 3.54077ZM44.6292 4.64767L43.7383 4.19348L43.7381 4.19387L44.6292 4.64767ZM52.6663 56.1224L52.4703 57.103L53.6663 57.3421V56.1224H52.6663ZM48.0737 49.5867L48.2697 48.6061L47.0737 48.367V49.5867H48.0737ZM41.1848 56.1224H40.1848V57.3421L41.3808 57.103L41.1848 56.1224ZM45.7774 49.5867H46.7774V48.367L45.5814 48.6061L45.7774 49.5867ZM14.7774 14.5273H13.7774V15.5273H14.7774V14.5273ZM23.9626 14.5273V15.5273H24.9626V14.5273H23.9626ZM14.3849 22.1804L14.8249 23.0784L14.8256 23.0781L14.3849 22.1804ZM17.0737 20.8605L17.5143 21.7581L18.0737 21.4836V20.8605H17.0737ZM12.4811 40.0252H11.4811V42.1317L13.1132 40.8L12.4811 40.0252ZM14.8839 38.6701L15.2149 39.6137L15.7504 39.4259L15.8638 38.8697L14.8839 38.6701ZM16.2277 32.0754L15.2479 31.8756L15.2478 31.8757L16.2277 32.0754ZM20.633 26.3356L21.0626 27.2386L21.0633 27.2383L20.633 26.3356ZM23.0162 24.8747L22.4524 24.0489L22.4523 24.0489L23.0162 24.8747ZM25.6321 23.2807L26.0686 24.1804L27.1306 23.6652L26.4478 22.7023L25.6321 23.2807ZM24.355 22.1804L24.7957 21.2827L24.355 22.1804ZM21.6663 20.8605H20.6663V21.4836L21.2256 21.7581L21.6663 20.8605ZM21.6663 16.7818H22.6663V15.7818H21.6663V16.7818ZM17.0737 16.7818V15.7818H16.0737V16.7818H17.0737ZM5.59219 60.7455H4.59219V61.7455H5.59219V60.7455ZM58.407 60.7455V61.7455H59.407V60.7455H58.407ZM54.3044 51.9898L54.5875 51.0307L52.5205 50.4205L53.3892 52.3929L54.3044 51.9898ZM54.9626 58.4909V59.4909H55.9626V58.4909H54.9626ZM46.9255 54.6434L47.7786 54.1216L46.9255 52.7269L46.0725 54.1216L46.9255 54.6434ZM38.8885 58.4909H37.8885V59.4909H38.8885V58.4909ZM45.7774 47.3084L45.9174 48.2986L46.7774 48.177V47.3084H45.7774ZM45.7774 43.6877H46.7774V41.8384L45.2298 42.851L45.7774 43.6877ZM40.6729 47.0277L39.8456 47.5895L40.3979 48.4028L41.2205 47.8645L40.6729 47.0277ZM39.3992 45.1519L38.8516 44.3152L38.0005 44.8722L38.5719 45.7136L39.3992 45.1519ZM45.7774 40.9774L46.325 41.8142L46.7774 41.5181V40.9774H45.7774ZM45.7774 38.0514H46.7774V36.202L45.2299 37.2146L45.7774 38.0514ZM40.6729 41.3914L39.8456 41.9531L40.3979 42.7664L41.2205 42.2282L40.6729 41.3914ZM39.3992 39.5155L38.8516 38.6788L38.0005 39.2358L38.5719 40.0773L39.3992 39.5155ZM45.7774 35.3411L46.325 36.1778L46.7774 35.8817V35.3411H45.7774ZM45.7774 32.415H46.7774V30.5656L45.2299 31.5782L45.7774 32.415ZM40.6729 35.755L39.8456 36.3168L40.3979 37.13L41.2205 36.5918L40.6729 35.755ZM39.3992 33.8792L38.8516 33.0424L38.0005 33.5994L38.5719 34.4409L39.3992 33.8792ZM45.7774 29.7047L46.325 30.5414L46.7774 30.2454V29.7047H45.7774ZM45.7774 26.7787H46.7774V24.9289L45.2297 25.942L45.7774 26.7787ZM40.6729 30.1197L39.8456 30.6815L40.398 31.4949L41.2206 30.9564L40.6729 30.1197ZM39.3992 28.2439L38.8519 27.407L38.0003 27.9639L38.5719 28.8056L39.3992 28.2439ZM40.6886 27.4006L41.236 28.2376L42.522 27.3965L41.2322 26.5613L40.6886 27.4006ZM39.6717 26.7253L40.2372 25.9005L40.2359 25.8996L39.6717 26.7253ZM32.5737 25.4417L32.0839 24.5698L32.0821 24.5709L32.5737 25.4417ZM31.9194 25.811L31.3301 26.6189L31.8503 26.9984L32.411 26.6818L31.9194 25.811ZM31.3128 25.3685L30.7207 26.1743L30.7235 26.1763L31.3128 25.3685ZM24.3275 26.7242L23.7637 25.8983L23.7628 25.8989L24.3275 26.7242ZM21.6343 28.3633L21.2048 27.4603L21.2046 27.4604L21.6343 28.3633ZM19.2222 30.5955L18.8688 31.531L19.6528 31.8271L20.0815 31.1071L19.2222 30.5955ZM19.2218 30.5954L19.5752 29.6599L18.6249 29.3009L18.2809 30.2567L19.2218 30.5954ZM19.221 30.5976L20.0804 31.1088L20.1294 31.0265L20.1619 30.9363L19.221 30.5976ZM19.2035 30.6272L18.3412 30.1208L17.7109 31.1941L18.8947 31.5784L19.2035 30.6272ZM19.2096 30.6292L20.1505 30.9679L20.4997 29.998L19.5196 29.6785L19.2096 30.6292ZM18.4454 32.752L18.1466 33.7063L19.0616 33.9928L19.3863 33.0907L18.4454 32.752ZM18.4309 32.7475L18.7258 31.792L17.6713 31.4665L17.4511 32.5479L18.4309 32.7475ZM17.3159 38.2226L16.336 38.023L16.0831 39.2644L17.3493 39.222L17.3159 38.2226ZM17.448 38.2115L17.3388 37.2175L17.3388 37.2175L17.448 38.2115ZM29.7033 38.2H30.7033V37.2H29.7033V38.2ZM29.7033 40.4545V41.4545H30.7033V40.4545H29.7033ZM12.1077 44.471L11.1513 44.1788L11.1513 44.1789L12.1077 44.471ZM10.5683 49.5113L9.61187 49.2191L9.17607 50.646L10.6615 50.5069L10.5683 49.5113ZM22.8144 49.4727H23.8144V48.4727H22.8144V49.4727ZM22.8144 51.7273V52.7273H23.8144V51.7273H22.8144ZM61.7033 57.3636C61.7033 52.443 57.6329 48.4727 52.6663 48.4727V50.4727C56.5631 50.4727 59.7033 53.582 59.7033 57.3636H61.7033ZM61.7033 60.7455V57.3636H59.7033V60.7455H61.7033ZM61.7033 63V60.7455H59.7033V63H61.7033ZM3.29605 64H60.7033V62H3.29605V64ZM2.2959 60.7455L2.29605 63.0001L4.29605 62.9999L4.2959 60.7454L2.2959 60.7455ZM2.2959 57.3636V60.7455H4.2959V57.3636H2.2959ZM7.539 49.3027C4.46045 50.7119 2.2959 53.7816 2.2959 57.3636H4.2959C4.2959 54.6146 5.95702 52.2264 8.37141 51.1212L7.539 49.3027ZM8.9515 43.5303L6.99887 49.9197L8.91154 50.5042L10.8642 44.1149L8.9515 43.5303ZM9.18682 42.9184C9.11838 43.0777 9.02556 43.2915 8.95273 43.5263L10.8629 44.1189C10.8996 44.0006 10.9497 43.8819 11.0244 43.7078L9.18682 42.9184ZM9.26027 42.7452C9.23769 42.7999 9.21394 42.8553 9.18682 42.9184L11.0244 43.7078C11.0506 43.6469 11.0802 43.5781 11.1093 43.5075L9.26027 42.7452ZM9.18479 25.205V43.1263H11.1848V25.205H9.18479ZM12.918 19.2659C10.6242 20.3913 9.18479 22.6676 9.18479 25.205H11.1848C11.1848 23.4446 12.1774 21.857 13.7989 21.0614L12.918 19.2659ZM14.3366 18.5692L12.9176 19.266L13.7993 21.0612L15.2182 20.3644L14.3366 18.5692ZM13.7774 16.7818V19.4668H15.7774V16.7818H13.7774ZM12.4811 17.7818H14.7774V15.7818H12.4811V17.7818ZM11.4811 13.4V16.7818H13.4811V13.4H11.4811ZM15.9255 9.01818C13.4918 9.01818 11.4811 10.9662 11.4811 13.4H13.4811C13.4811 12.1052 14.5616 11.0182 15.9255 11.0182V9.01818ZM22.8144 9.01818H15.9255V11.0182H22.8144V9.01818ZM27.2589 13.4C27.2589 10.9662 25.2481 9.01818 22.8144 9.01818V11.0182C24.1783 11.0182 25.2589 12.1052 25.2589 13.4H27.2589ZM27.2589 16.7818V13.4H25.2589V16.7818H27.2589ZM23.9626 17.7818H26.2589V15.7818H23.9626V17.7818ZM24.9626 19.4668V16.7818H22.9626V19.4668H24.9626ZM25.8231 19.2659L24.4031 18.5691L23.522 20.3645L24.9421 21.0614L25.8231 19.2659ZM28.7296 22.0636C28.0777 20.8741 27.0849 19.8843 25.8227 19.2657L24.9425 21.0616C25.814 21.4888 26.5109 22.1766 26.9758 23.0248L28.7296 22.0636ZM29.127 21.4182C28.6021 21.4182 28.1194 21.4805 27.6764 21.5599L28.029 23.5286C28.4034 23.4615 28.7605 23.4182 29.127 23.4182V21.4182ZM32.562 22.2913C31.5148 21.7008 30.3742 21.4182 29.127 21.4182V23.4182C30.0561 23.4182 30.8541 23.6243 31.5796 24.0334L32.562 22.2913ZM34.8722 21.4182C33.6337 21.4182 32.3594 21.9266 31.6505 22.255L32.4911 24.0698C33.1513 23.764 34.0925 23.4182 34.8722 23.4182V21.4182ZM41.5446 24.0484C39.8876 22.9168 37.7352 21.4182 34.8722 21.4182V23.4182C37.0333 23.4182 38.7009 24.5283 40.4166 25.7L41.5446 24.0484ZM41.5473 24.0503L41.5449 24.0487L40.4163 25.6998L40.4186 25.7014L41.5473 24.0503ZM43.2886 25.1457C42.7198 24.8277 42.1508 24.4625 41.547 24.0501L40.4189 25.7016C41.0496 26.1324 41.6725 26.5334 42.3124 26.8913L43.2886 25.1457ZM45.2296 23.2328L42.2527 25.1819L43.3483 26.8551L46.3251 24.9061L45.2296 23.2328ZM44.7774 21.2909V24.0695H46.7774V21.2909H44.7774ZM41.4556 22.2909H45.7774V20.2909H41.4556V22.2909ZM35.5922 16.516C35.5922 19.7187 38.2387 22.2909 41.4556 22.2909V20.2909C39.3085 20.2909 37.5922 18.5797 37.5922 16.516H35.5922ZM36.2138 13.9277C35.8076 14.7266 35.5922 15.6199 35.5922 16.516H37.5922C37.5922 15.9369 37.7323 15.354 37.9966 14.8341L36.2138 13.9277ZM41.684 3.18604L36.2141 13.9271L37.9963 14.8347L43.4662 4.09365L41.684 3.18604ZM46.9255 0C44.702 0 42.687 1.21588 41.684 3.18616L43.4663 4.09352C44.1216 2.80639 45.44 2 46.9255 2V0ZM52.167 3.18482C51.1639 1.21577 49.1489 0 46.9255 0V2C48.4112 2 49.7297 2.80649 50.3849 4.09267L52.167 3.18482ZM57.637 13.926L52.167 3.18494L50.3848 4.09255L55.8548 14.8336L57.637 13.926ZM58.2589 16.516C58.2589 15.6198 58.0434 14.7267 57.6376 13.9272L55.8542 14.8324C56.1189 15.3538 56.2589 15.937 56.2589 16.516H58.2589ZM52.3955 22.2909C55.6124 22.2909 58.2589 19.7187 58.2589 16.516H56.2589C56.2589 18.5797 54.5426 20.2909 52.3955 20.2909V22.2909ZM48.0737 22.2909H52.3955V20.2909H48.0737V22.2909ZM49.0737 24.0695V21.2909H47.0737V24.0695H49.0737ZM54.9985 27.4084L48.6215 23.2328L47.5259 24.9061L53.9029 29.0816L54.9985 27.4084ZM54.0043 30.6826L55.278 28.8067L53.6234 27.6832L52.3497 29.5591L54.0043 30.6826ZM47.5259 27.6164L52.6292 30.9575L53.7247 29.2842L48.6214 25.9431L47.5259 27.6164ZM49.0737 29.7058V26.7798H47.0737V29.7058H49.0737ZM54.9985 33.0447L48.6215 28.8692L47.5259 30.5424L53.9029 34.718L54.9985 33.0447ZM54.0043 36.319L55.278 34.4431L53.6234 33.3196L52.3497 35.1955L54.0043 36.319ZM47.5259 33.2528L52.6292 36.5939L53.7247 34.9206L48.6214 31.5795L47.5259 33.2528ZM49.0737 35.3422V32.4161H47.0737V35.3422H49.0737ZM54.9985 38.6811L48.6215 34.5056L47.5259 36.1788L53.9029 40.3543L54.9985 38.6811ZM54.0043 41.9553L55.278 40.0795L53.6234 38.956L52.3497 40.8318L54.0043 41.9553ZM47.5259 38.8891L52.6292 42.2302L53.7247 40.5569L48.6214 37.2158L47.5259 38.8891ZM49.0737 40.9785V38.0525H47.0737V40.9785H49.0737ZM54.9984 44.3163L48.6214 40.1419L47.526 41.8152L53.903 45.9897L54.9984 44.3163ZM54.0043 47.5906L55.278 45.7147L53.6234 44.5912L52.3497 46.4671L54.0043 47.5906ZM47.5259 44.5244L52.6292 47.8655L53.7247 46.1922L48.6214 42.8511L47.5259 44.5244ZM49.0737 47.3084V43.6877H47.0737V47.3084H49.0737ZM53.2327 48.7514C51.8927 47.4649 50.15 46.5913 48.2133 46.3182L47.9341 48.2987C49.4486 48.5122 50.806 49.1941 51.8476 50.1941L53.2327 48.7514ZM52.6663 48.4727H52.5401V50.4727H52.6663V48.4727ZM39.8885 16.516C39.8885 16.286 39.9447 16.051 40.0512 15.8408L38.2673 14.9366C38.0206 15.4232 37.8885 15.9676 37.8885 16.516H39.8885ZM41.4556 18.0364C40.5749 18.0364 39.8885 17.3363 39.8885 16.516H37.8885C37.8885 18.4753 39.5051 20.0364 41.4556 20.0364V18.0364ZM52.3955 18.0364H41.4556V20.0364H52.3955V18.0364ZM53.9626 16.516C53.9626 17.3363 53.2761 18.0364 52.3955 18.0364V20.0364C54.346 20.0364 55.9626 18.4753 55.9626 16.516H53.9626ZM53.801 15.8431C53.9067 16.0503 53.9626 16.2842 53.9626 16.516H55.9626C55.9626 15.9694 55.8323 15.424 55.5826 14.9343L53.801 15.8431ZM48.3307 5.10148L53.8007 15.8425L55.5829 14.9349L50.1129 4.19387L48.3307 5.10148ZM47.6305 4.43722C47.948 4.59414 48.1876 4.82084 48.3309 5.10187L50.1127 4.19348C49.7481 3.47823 49.1659 2.96516 48.5168 2.64431L47.6305 4.43722ZM45.7774 4.54077H48.0737V2.54077H45.7774V4.54077ZM45.5201 5.10187C45.6634 4.82084 45.9031 4.59414 46.2205 4.43722L45.3342 2.64431C44.6852 2.96516 44.103 3.47823 43.7383 4.19348L45.5201 5.10187ZM40.0504 15.8425L45.5203 5.10148L43.7381 4.19387L38.2682 14.9349L40.0504 15.8425ZM51.6663 55.1091V56.1224H53.6663V55.1091H51.6663ZM47.8777 50.5673C50.0491 51.0012 51.6663 52.886 51.6663 55.1091H53.6663C53.6663 51.8874 51.3311 49.2179 48.2697 48.6061L47.8777 50.5673ZM49.0737 50.6V49.5867H47.0737V50.6H49.0737ZM52.8622 55.1418C50.691 54.7079 49.0737 52.8222 49.0737 50.6H47.0737C47.0737 53.8205 49.4087 56.4912 52.4703 57.103L52.8622 55.1418ZM44.7774 50.6C44.7774 52.8231 43.1602 54.7079 40.9888 55.1418L41.3808 57.103C44.4422 56.4912 46.7774 53.8217 46.7774 50.6H44.7774ZM44.7774 49.5867V50.6H46.7774V49.5867H44.7774ZM42.1848 55.1091C42.1848 52.886 43.802 51.0012 45.9734 50.5673L45.5814 48.6061C42.52 49.2179 40.1848 51.8874 40.1848 55.1091H42.1848ZM42.1848 56.1224V55.1091H40.1848V56.1224H42.1848ZM15.7774 13.4C15.7774 13.3486 15.8281 13.2727 15.9255 13.2727V11.2727C14.7582 11.2727 13.7774 12.2096 13.7774 13.4H15.7774ZM15.7774 14.5273V13.4H13.7774V14.5273H15.7774ZM23.9626 13.5273H14.7774V15.5273H23.9626V13.5273ZM22.9626 13.4V14.5273H24.9626V13.4H22.9626ZM22.8144 13.2727C22.9119 13.2727 22.9626 13.3486 22.9626 13.4H24.9626C24.9626 12.2096 23.9817 11.2727 22.8144 11.2727V13.2727ZM15.9255 13.2727H22.8144V11.2727H15.9255V13.2727ZM14.8256 23.0781L17.5143 21.7581L16.633 19.9628L13.9443 21.2827L14.8256 23.0781ZM13.4811 25.205C13.4811 24.3034 13.9869 23.489 14.8249 23.0784L13.945 21.2824C12.4329 22.0233 11.4811 23.5273 11.4811 25.205H13.4811ZM13.4811 40.0252V25.205H11.4811V40.0252H13.4811ZM14.5529 37.7264C13.554 38.0768 12.6468 38.5994 11.8489 39.2504L13.1132 40.8C13.7416 40.2874 14.4468 39.8831 15.2149 39.6137L14.5529 37.7264ZM15.2478 31.8757L13.904 38.4704L15.8638 38.8697L17.2076 32.2751L15.2478 31.8757ZM20.2035 25.4325C17.6636 26.6408 15.823 29.0558 15.2479 31.8756L17.2075 32.2753C17.6628 30.0432 19.1153 28.1649 21.0626 27.2386L20.2035 25.4325ZM22.4523 24.0489C21.6288 24.6113 20.9277 25.0874 20.2028 25.4328L21.0633 27.2383C21.953 26.8143 22.7835 26.2446 23.5802 25.7006L22.4523 24.0489ZM25.1956 22.381C24.1701 22.8785 23.2527 23.5024 22.4524 24.0489L23.5801 25.7006C24.3921 25.1462 25.1947 24.6043 26.0686 24.1804L25.1956 22.381ZM23.9143 23.0781C24.273 23.2542 24.5778 23.5227 24.8163 23.8591L26.4478 22.7023C26.0338 22.1184 25.4797 21.6185 24.7957 21.2827L23.9143 23.0781ZM21.2256 21.7581L23.9143 23.0781L24.7957 21.2827L22.1069 19.9628L21.2256 21.7581ZM20.6663 16.7818V20.8605H22.6663V16.7818H20.6663ZM17.0737 17.7818H21.6663V15.7818H17.0737V17.7818ZM18.0737 20.8605V16.7818H16.0737V20.8605H18.0737ZM6.59219 57.3636C6.59219 54.8254 8.70259 52.7273 11.3329 52.7273V50.7273C7.63277 50.7273 4.59219 53.6864 4.59219 57.3636H6.59219ZM6.59219 60.7455V57.3636H4.59219V60.7455H6.59219ZM58.407 59.7455H5.59219V61.7455H58.407V59.7455ZM57.407 57.3636V60.7455H59.407V57.3636H57.407ZM54.0213 52.9489C55.9919 53.5307 57.407 55.2938 57.407 57.3636H59.407C59.407 54.3431 57.3452 51.8449 54.5875 51.0307L54.0213 52.9489ZM55.9626 55.1091C55.9626 53.8572 55.695 52.6662 55.2196 51.5868L53.3892 52.3929C53.757 53.2278 53.9626 54.145 53.9626 55.1091H55.9626ZM55.9626 58.4909V55.1091H53.9626V58.4909H55.9626ZM53.8144 59.4909H54.9626V57.4909H53.8144V59.4909ZM46.0725 55.1652C47.6543 57.7514 50.5287 59.4909 53.8144 59.4909V57.4909C51.2495 57.4909 49.01 56.1348 47.7786 54.1216L46.0725 55.1652ZM40.0366 59.4909C43.3224 59.4909 46.1968 57.7514 47.7786 55.1652L46.0725 54.1216C44.8411 56.1348 42.6015 57.4909 40.0366 57.4909V59.4909ZM38.8885 59.4909H40.0366V57.4909H38.8885V59.4909ZM37.8885 55.1091V58.4909H39.8885V55.1091H37.8885ZM45.6374 46.3183C41.2785 46.9346 37.8885 50.6207 37.8885 55.1091H39.8885C39.8885 51.6636 42.4983 48.782 45.9174 48.2986L45.6374 46.3183ZM44.7774 43.6877V47.3084H46.7774V43.6877H44.7774ZM41.2205 47.8645L46.3249 44.5245L45.2298 42.851L40.1254 46.191L41.2205 47.8645ZM38.5719 45.7136L39.8456 47.5895L41.5003 46.466L40.2265 44.5901L38.5719 45.7136ZM45.2298 40.1407L38.8516 44.3152L39.9468 45.9886L46.325 41.8142L45.2298 40.1407ZM44.7774 38.0514V40.9774H46.7774V38.0514H44.7774ZM41.2205 42.2282L46.3249 38.8882L45.2299 37.2146L40.1254 40.5546L41.2205 42.2282ZM38.5719 40.0773L39.8456 41.9531L41.5002 40.8296L40.2265 38.9538L38.5719 40.0773ZM45.2298 34.5044L38.8516 38.6788L39.9468 40.3522L46.325 36.1778L45.2298 34.5044ZM44.7774 32.415V35.3411H46.7774V32.415H44.7774ZM41.2205 36.5918L46.3249 33.2518L45.2299 31.5782L40.1254 34.9182L41.2205 36.5918ZM38.5719 34.4409L39.8456 36.3168L41.5002 35.1933L40.2265 33.3174L38.5719 34.4409ZM45.2298 28.868L38.8516 33.0424L39.9468 34.7159L46.325 30.5414L45.2298 28.868ZM44.7774 26.7787V29.7047H46.7774V26.7787H44.7774ZM41.2206 30.9564L46.325 27.6154L45.2297 25.942L40.1253 29.283L41.2206 30.9564ZM38.5719 28.8056L39.8456 30.6815L41.5002 29.558L40.2265 27.6821L38.5719 28.8056ZM40.1413 26.5637L38.8519 27.407L39.9465 29.0808L41.236 28.2376L40.1413 26.5637ZM39.1062 27.55C39.4466 27.7834 39.7964 28.0142 40.1451 28.24L41.2322 26.5613C40.8925 26.3413 40.5583 26.1207 40.2372 25.9005L39.1062 27.55ZM34.8722 25.6727C36.304 25.6727 37.5081 26.4579 39.1075 27.5509L40.2359 25.8996C38.744 24.8801 37.0272 23.6727 34.8722 23.6727V25.6727ZM33.0635 26.3135C33.2799 26.1919 33.6358 26.022 34.01 25.885C34.4085 25.739 34.715 25.6727 34.8722 25.6727V23.6727C34.35 23.6727 33.7712 23.8425 33.3223 24.0069C32.8492 24.1802 32.3955 24.3947 32.0839 24.5698L33.0635 26.3135ZM32.411 26.6818L33.0653 26.3125L32.0821 24.5709L31.4278 24.9402L32.411 26.6818ZM30.7235 26.1763L31.3301 26.6189L32.5088 25.0031L31.9022 24.5606L30.7235 26.1763ZM29.127 25.6727C29.7832 25.6727 30.2468 25.8261 30.7207 26.1743L31.905 24.5627C31.0681 23.9476 30.1841 23.6727 29.127 23.6727V25.6727ZM24.8913 27.5501C26.4911 26.458 27.695 25.6727 29.127 25.6727V23.6727C26.9721 23.6727 25.2552 24.88 23.7637 25.8983L24.8913 27.5501ZM22.0638 29.2664C23.1142 28.7668 24.0541 28.1229 24.8922 27.5495L23.7628 25.8989C22.9068 26.4846 22.0919 27.0384 21.2048 27.4603L22.0638 29.2664ZM20.0815 31.1071C20.5653 30.2944 21.2542 29.6518 22.0641 29.2663L21.2046 27.4604C20.0124 28.0278 19.0349 28.9554 18.363 30.084L20.0815 31.1071ZM18.8684 31.5308L18.8688 31.531L19.5756 29.66L19.5752 29.6599L18.8684 31.5308ZM20.1619 30.9363L20.1627 30.934L18.2809 30.2567L18.2801 30.2589L20.1619 30.9363ZM20.0658 31.1336C20.0707 31.1253 20.0756 31.117 20.0804 31.1088L18.3616 30.0863C18.3547 30.0979 18.3479 30.1094 18.3412 30.1208L20.0658 31.1336ZM19.5196 29.6785C19.5174 29.6778 19.5149 29.677 19.5122 29.6761L18.8947 31.5784C18.8962 31.5788 18.8977 31.5794 18.8996 31.58L19.5196 29.6785ZM19.3863 33.0907L20.1505 30.9679L18.2687 30.2905L17.5045 32.4133L19.3863 33.0907ZM18.136 33.703C18.1396 33.7041 18.1431 33.7052 18.1466 33.7063L18.7442 31.7977C18.7381 31.7957 18.732 31.7938 18.7258 31.792L18.136 33.703ZM18.2957 38.4221L19.4108 32.947L17.4511 32.5479L16.336 38.023L18.2957 38.4221ZM17.3388 37.2175C17.3154 37.22 17.3032 37.2213 17.2924 37.2223C17.2828 37.2232 17.2804 37.2232 17.2824 37.2231L17.3493 39.222C17.4383 39.219 17.5194 39.2097 17.5573 39.2055L17.3388 37.2175ZM17.6063 37.2C17.4889 37.2 17.3829 37.2126 17.3388 37.2175L17.5572 39.2055C17.5709 39.204 17.5805 39.2029 17.5895 39.202C17.5982 39.2011 17.604 39.2006 17.6081 39.2003C17.6165 39.1996 17.6144 39.2 17.6063 39.2V37.2ZM29.7033 37.2H17.6063V39.2H29.7033V37.2ZM30.7033 40.4545V38.2H28.7033V40.4545H30.7033ZM17.6063 41.4545H29.7033V39.4545H17.6063V41.4545ZM13.0641 44.7632C13.6664 42.7916 15.4808 41.4545 17.6063 41.4545V39.4545C14.6222 39.4545 12.0167 41.3463 11.1513 44.1788L13.0641 44.7632ZM11.5246 49.8034L13.0641 44.7631L11.1513 44.1789L9.61187 49.2191L11.5246 49.8034ZM11.3329 48.4727C11.0362 48.4727 10.7508 48.4898 10.475 48.5156L10.6615 50.5069C10.8914 50.4854 11.1128 50.4727 11.3329 50.4727V48.4727ZM22.8144 48.4727H11.3329V50.4727H22.8144V48.4727ZM23.8144 51.7273V49.4727H21.8144V51.7273H23.8144ZM11.3329 52.7273H22.8144V50.7273H11.3329V52.7273Z" fill="#322153" mask="url(#path-4-inside-1)"/>
</svg>
